<mxfile host="app.diagrams.net" agent="Mozilla/5.0 (X11; Ubuntu; Linux x86_64; rv:136.0) Gecko/20100101 Firefox/136.0" version="26.1.1">
  <diagram name="Page-1" id="5sKYIhL3RmwZ1YFvMS--">
    <mxGraphModel dx="1339" dy="636" grid="1" gridSize="10" guides="1" tooltips="1" connect="1" arrows="1" fold="1" page="1" pageScale="1" pageWidth="850" pageHeight="1100" math="0" shadow="0">
      <root>
        <mxCell id="0" />
        <mxCell id="1" parent="0" />
        <mxCell id="R1s8RJMTlrpI-1WShA8P-1" value="User" style="swimlane;childLayout=stackLayout;horizontal=1;startSize=50;horizontalStack=0;rounded=1;fontSize=14;fontStyle=0;strokeWidth=2;resizeParent=0;resizeLast=1;shadow=0;dashed=0;align=center;arcSize=4;whiteSpace=wrap;html=1;" vertex="1" parent="1">
          <mxGeometry x="30" y="65" width="230" height="130" as="geometry" />
        </mxCell>
        <mxCell id="R1s8RJMTlrpI-1WShA8P-2" value="id varchar(10) primary key&lt;br&gt;age int not null&lt;br&gt;phone_number varchar(10) not null&lt;br&gt;email varchar(20) not null unique&lt;br&gt;user_name unique not null" style="align=left;strokeColor=none;fillColor=none;spacingLeft=4;spacingRight=4;fontSize=12;verticalAlign=top;resizable=0;rotatable=0;part=1;html=1;whiteSpace=wrap;" vertex="1" parent="R1s8RJMTlrpI-1WShA8P-1">
          <mxGeometry y="50" width="230" height="80" as="geometry" />
        </mxCell>
        <mxCell id="R1s8RJMTlrpI-1WShA8P-3" value="User_prefrences" style="swimlane;childLayout=stackLayout;horizontal=1;startSize=50;horizontalStack=0;rounded=1;fontSize=14;fontStyle=0;strokeWidth=2;resizeParent=0;resizeLast=1;shadow=0;dashed=0;align=center;arcSize=4;whiteSpace=wrap;html=1;" vertex="1" parent="1">
          <mxGeometry x="500" y="70" width="290" height="120" as="geometry" />
        </mxCell>
        <mxCell id="R1s8RJMTlrpI-1WShA8P-4" value="profile_pic image&lt;br&gt;name varchar(10) not null&lt;br&gt;show_read_status boolean not null defualt(true)&lt;br&gt;user_id varchar(10)&lt;div&gt;&lt;br&gt;&lt;/div&gt;" style="align=left;strokeColor=none;fillColor=none;spacingLeft=4;spacingRight=4;fontSize=12;verticalAlign=top;resizable=0;rotatable=0;part=1;html=1;whiteSpace=wrap;" vertex="1" parent="R1s8RJMTlrpI-1WShA8P-3">
          <mxGeometry y="50" width="290" height="70" as="geometry" />
        </mxCell>
        <mxCell id="R1s8RJMTlrpI-1WShA8P-8" value="followers" style="swimlane;childLayout=stackLayout;horizontal=1;startSize=50;horizontalStack=0;rounded=1;fontSize=14;fontStyle=0;strokeWidth=2;resizeParent=0;resizeLast=1;shadow=0;dashed=0;align=center;arcSize=4;whiteSpace=wrap;html=1;" vertex="1" parent="1">
          <mxGeometry x="101" y="350" width="220" height="140" as="geometry" />
        </mxCell>
        <mxCell id="R1s8RJMTlrpI-1WShA8P-9" value="id varchar(10) primary key&lt;br&gt;phone_number varchar(10) not null&lt;br&gt;friends_since datetime not null&lt;br&gt;user_id varchar(10)&lt;br&gt;forign key (user_id) refrences users(id)" style="align=left;strokeColor=none;fillColor=none;spacingLeft=4;spacingRight=4;fontSize=12;verticalAlign=top;resizable=0;rotatable=0;part=1;html=1;whiteSpace=wrap;" vertex="1" parent="R1s8RJMTlrpI-1WShA8P-8">
          <mxGeometry y="50" width="220" height="90" as="geometry" />
        </mxCell>
        <mxCell id="R1s8RJMTlrpI-1WShA8P-10" value="chats" style="swimlane;childLayout=stackLayout;horizontal=1;startSize=50;horizontalStack=0;rounded=1;fontSize=14;fontStyle=0;strokeWidth=2;resizeParent=0;resizeLast=1;shadow=0;dashed=0;align=center;arcSize=4;whiteSpace=wrap;html=1;" vertex="1" parent="1">
          <mxGeometry x="540" y="330" width="240" height="130" as="geometry" />
        </mxCell>
        <mxCell id="R1s8RJMTlrpI-1WShA8P-11" value="follwer_id varchar(10)&lt;br&gt;forign key (follwer_id) refrences follwers(id) user_id varchar(10)&lt;br&gt;&lt;div&gt;forign key (user_id) refrences users(id)&lt;/div&gt;&lt;div&gt;message varchar(100) not null&lt;/div&gt;&lt;div&gt;&lt;br&gt;&lt;/div&gt;" style="align=left;strokeColor=none;fillColor=none;spacingLeft=4;spacingRight=4;fontSize=12;verticalAlign=top;resizable=0;rotatable=0;part=1;html=1;whiteSpace=wrap;" vertex="1" parent="R1s8RJMTlrpI-1WShA8P-10">
          <mxGeometry y="50" width="240" height="80" as="geometry" />
        </mxCell>
        <mxCell id="R1s8RJMTlrpI-1WShA8P-12" value="tweets" style="swimlane;childLayout=stackLayout;horizontal=1;startSize=50;horizontalStack=0;rounded=1;fontSize=14;fontStyle=0;strokeWidth=2;resizeParent=0;resizeLast=1;shadow=0;dashed=0;align=center;arcSize=4;whiteSpace=wrap;html=1;" vertex="1" parent="1">
          <mxGeometry x="100" y="620" width="270" height="150" as="geometry" />
        </mxCell>
        <mxCell id="R1s8RJMTlrpI-1WShA8P-13" value="id varchar(10) primary key&lt;br&gt;likes_count int not null check (likes_count &amp;gt; 0)&lt;br&gt;&amp;nbsp;retweets_count int not null check (retweets_count &amp;gt; 0)&lt;br&gt;&amp;nbsp;user_id varchar(10)&lt;br&gt;forign key (user_id) refrences users(id)" style="align=left;strokeColor=none;fillColor=none;spacingLeft=4;spacingRight=4;fontSize=12;verticalAlign=top;resizable=0;rotatable=0;part=1;html=1;whiteSpace=wrap;" vertex="1" parent="R1s8RJMTlrpI-1WShA8P-12">
          <mxGeometry y="50" width="270" height="100" as="geometry" />
        </mxCell>
        <mxCell id="R1s8RJMTlrpI-1WShA8P-14" value="tweet_comments" style="swimlane;childLayout=stackLayout;horizontal=1;startSize=50;horizontalStack=0;rounded=1;fontSize=14;fontStyle=0;strokeWidth=2;resizeParent=0;resizeLast=1;shadow=0;dashed=0;align=center;arcSize=4;whiteSpace=wrap;html=1;" vertex="1" parent="1">
          <mxGeometry x="530" y="620" width="240" height="150" as="geometry" />
        </mxCell>
        <mxCell id="R1s8RJMTlrpI-1WShA8P-15" value="id varchar(10) primary key&lt;br&gt;comment_date datetime not null&lt;br&gt;user_id varchar(10)&lt;br&gt;forign key (user_id) refrences users(id)&lt;br&gt;tweets_id varchar(10)&lt;br&gt;forign key (tweets_id) refrences tweets(id)&lt;br&gt;&lt;br&gt;&lt;div&gt;&lt;br&gt;&lt;/div&gt;" style="align=left;strokeColor=none;fillColor=none;spacingLeft=4;spacingRight=4;fontSize=12;verticalAlign=top;resizable=0;rotatable=0;part=1;html=1;whiteSpace=wrap;" vertex="1" parent="R1s8RJMTlrpI-1WShA8P-14">
          <mxGeometry y="50" width="240" height="100" as="geometry" />
        </mxCell>
        <mxCell id="R1s8RJMTlrpI-1WShA8P-17" style="edgeStyle=orthogonalEdgeStyle;rounded=0;orthogonalLoop=1;jettySize=auto;html=1;exitX=0;exitY=0.5;exitDx=0;exitDy=0;entryX=1;entryY=0.5;entryDx=0;entryDy=0;" edge="1" parent="1" source="R1s8RJMTlrpI-1WShA8P-4" target="R1s8RJMTlrpI-1WShA8P-2">
          <mxGeometry relative="1" as="geometry" />
        </mxCell>
        <mxCell id="R1s8RJMTlrpI-1WShA8P-18" value="id:user_id" style="text;strokeColor=none;fillColor=none;spacingLeft=4;spacingRight=4;overflow=hidden;rotatable=0;points=[[0,0.5],[1,0.5]];portConstraint=eastwest;fontSize=12;whiteSpace=wrap;html=1;" vertex="1" parent="1">
          <mxGeometry x="350" y="130" width="100" height="20" as="geometry" />
        </mxCell>
        <mxCell id="R1s8RJMTlrpI-1WShA8P-22" style="edgeStyle=orthogonalEdgeStyle;rounded=0;orthogonalLoop=1;jettySize=auto;html=1;exitX=0.5;exitY=1;exitDx=0;exitDy=0;entryX=0.5;entryY=0;entryDx=0;entryDy=0;" edge="1" parent="1" source="R1s8RJMTlrpI-1WShA8P-2" target="R1s8RJMTlrpI-1WShA8P-8">
          <mxGeometry relative="1" as="geometry" />
        </mxCell>
        <mxCell id="R1s8RJMTlrpI-1WShA8P-23" value="id:user_id" style="text;strokeColor=none;fillColor=none;spacingLeft=4;spacingRight=4;overflow=hidden;rotatable=0;points=[[0,0.5],[1,0.5]];portConstraint=eastwest;fontSize=12;whiteSpace=wrap;html=1;" vertex="1" parent="1">
          <mxGeometry x="150" y="250" width="80" height="40" as="geometry" />
        </mxCell>
        <mxCell id="R1s8RJMTlrpI-1WShA8P-26" style="edgeStyle=orthogonalEdgeStyle;rounded=0;orthogonalLoop=1;jettySize=auto;html=1;exitX=1;exitY=0.5;exitDx=0;exitDy=0;entryX=-0.01;entryY=0.625;entryDx=0;entryDy=0;entryPerimeter=0;" edge="1" parent="1" source="R1s8RJMTlrpI-1WShA8P-9" target="R1s8RJMTlrpI-1WShA8P-11">
          <mxGeometry relative="1" as="geometry" />
        </mxCell>
        <mxCell id="R1s8RJMTlrpI-1WShA8P-27" style="edgeStyle=orthogonalEdgeStyle;rounded=0;orthogonalLoop=1;jettySize=auto;html=1;exitX=1;exitY=1;exitDx=0;exitDy=0;entryX=0;entryY=0;entryDx=0;entryDy=0;" edge="1" parent="1" source="R1s8RJMTlrpI-1WShA8P-2" target="R1s8RJMTlrpI-1WShA8P-10">
          <mxGeometry relative="1" as="geometry" />
        </mxCell>
        <mxCell id="R1s8RJMTlrpI-1WShA8P-28" value="id:user_id" style="text;strokeColor=none;fillColor=none;spacingLeft=4;spacingRight=4;overflow=hidden;rotatable=0;points=[[0,0.5],[1,0.5]];portConstraint=eastwest;fontSize=12;whiteSpace=wrap;html=1;" vertex="1" parent="1">
          <mxGeometry x="340" y="230" width="80" height="40" as="geometry" />
        </mxCell>
        <mxCell id="R1s8RJMTlrpI-1WShA8P-32" value="id:follower_id" style="text;strokeColor=none;fillColor=none;spacingLeft=4;spacingRight=4;overflow=hidden;rotatable=0;points=[[0,0.5],[1,0.5]];portConstraint=eastwest;fontSize=12;whiteSpace=wrap;html=1;" vertex="1" parent="1">
          <mxGeometry x="360" y="390" width="80" height="40" as="geometry" />
        </mxCell>
        <mxCell id="R1s8RJMTlrpI-1WShA8P-33" style="edgeStyle=orthogonalEdgeStyle;rounded=0;orthogonalLoop=1;jettySize=auto;html=1;exitX=0;exitY=1;exitDx=0;exitDy=0;entryX=-0.005;entryY=0.124;entryDx=0;entryDy=0;entryPerimeter=0;" edge="1" parent="1" source="R1s8RJMTlrpI-1WShA8P-2" target="R1s8RJMTlrpI-1WShA8P-12">
          <mxGeometry relative="1" as="geometry">
            <Array as="points">
              <mxPoint x="30" y="520" />
              <mxPoint x="99" y="520" />
            </Array>
          </mxGeometry>
        </mxCell>
        <mxCell id="R1s8RJMTlrpI-1WShA8P-34" value="id:user_id" style="text;strokeColor=none;fillColor=none;spacingLeft=4;spacingRight=4;overflow=hidden;rotatable=0;points=[[0,0.5],[1,0.5]];portConstraint=eastwest;fontSize=12;whiteSpace=wrap;html=1;" vertex="1" parent="1">
          <mxGeometry x="30" y="300" width="80" height="40" as="geometry" />
        </mxCell>
        <mxCell id="R1s8RJMTlrpI-1WShA8P-35" value="id:tweet_id" style="text;strokeColor=none;fillColor=none;spacingLeft=4;spacingRight=4;overflow=hidden;rotatable=0;points=[[0,0.5],[1,0.5]];portConstraint=eastwest;fontSize=12;whiteSpace=wrap;html=1;" vertex="1" parent="1">
          <mxGeometry x="410" y="660" width="80" height="40" as="geometry" />
        </mxCell>
        <mxCell id="R1s8RJMTlrpI-1WShA8P-36" style="edgeStyle=orthogonalEdgeStyle;rounded=0;orthogonalLoop=1;jettySize=auto;html=1;exitX=1;exitY=0.25;exitDx=0;exitDy=0;entryX=0;entryY=0.25;entryDx=0;entryDy=0;" edge="1" parent="1" source="R1s8RJMTlrpI-1WShA8P-13" target="R1s8RJMTlrpI-1WShA8P-15">
          <mxGeometry relative="1" as="geometry" />
        </mxCell>
      </root>
    </mxGraphModel>
  </diagram>
</mxfile>
